:FULLY-SPECIFIED
:FORCE-ALL-JOINTS-BE-3DOF
:DEGREES
54
root -2.6282 17.1903 -21.2491 -1.52737 -5.37633 3.97384
lfemur -8.79178 -4.04502 -27.0903
ltibia 31.7765 0 0
lfoot -5.0659 -6.6355 -0.30201
ltoes -2.05224 0 0
rfemur -18.6994 -0.830915 16.2319
rtibia 58.9472 0 0
rfoot 2.39238 -2.4582 0.00110626
rtoes 7.87385 0 0
lowerback 7.06408 0.680316 -3.84961
upperback -0.414268 0.636139 1.17472
thorax -4.28192 0.410629 3.27946
lowerneck -14.169 -3.33263 -10.7125
upperneck 22.6217 -3.24587 4.90888
head 9.78399 -1.88691 3.10267
lclavicle -1.8748e-14 -5.56609e-16 8.92333e-31
lhumerus -33.7739 15.2403 80.8846
lradius 22.4813 0 0
lwrist -12.6425 0 0
lhand -15.9361 26.0302 0.052021
lfingers 7.12502 0 0
lthumb 10.2604 55.7289 0.0456838
rclavicle -1.8748e-14 -5.56609e-16 8.92333e-31
rhumerus -33.0579 -18.4455 -75.5428
rradius 30.8525 0 0
rwrist 8.26394 0 0
rhand -16.1955 11.7806 -0.0335217
rfingers 7.12502 0 0
rthumb 10.0112 -17.9521 -0.030673
55
root -2.64165 17.2012 -21.012 -1.53773 -5.21191 3.87611
lfemur -8.58005 -3.75554 -26.9537
ltibia 32.3795 0 0
lfoot -4.19295 -7.16288 -0.472555
ltoes -2.67028 0 0
rfemur -19.8184 -1.10792 16.4648
rtibia 59.6663 0 0
rfoot 1.44276 -2.95529 0.0229376
rtoes 7.17791 0 0
lowerback 6.92667 0.479847 -3.64459
upperback -0.343775 0.393461 1.19594
thorax -4.12984 0.281612 3.21725
lowerneck -14.2653 -3.14567 -10.6779
upperneck 22.7965 -2.96695 4.84826
head 9.83771 -1.76528 3.11456
lclavicle -6.40925e-16 9.34289e-15 -3.47934e-33
lhumerus -33.4265 15.2288 80.9734
lradius 22.5186 0 0
lwrist -12.8374 0 0
lhand -15.7008 26.6292 0.0876019
lfingers 7.12502 0 0
lthumb 10.4871 56.3097 0.0789836
rclavicle -6.40925e-16 9.34289e-15 -3.47934e-33
rhumerus -33.3513 -18.9186 -75.4271
rradius 30.427 0 0
rwrist 8.9842 0 0
rhand -15.8757 12.6649 -0.0472142
rfingers 7.12502 0 0
rthumb 10.3195 -17.0495 -0.0432265
56
root -2.65888 17.2065 -20.7802 -1.57651 -5.06367 3.85342
lfemur -8.33045 -3.60638 -26.8733
ltibia 33.0152 0 0
lfoot -3.42352 -7.60313 -0.648625
ltoes -2.85886 0 0
rfemur -20.8686 -1.26526 16.6254
rtibia 60.1374 0 0
rfoot 0.525947 -3.31722 0.0297281
rtoes 6.70111 0 0
lowerback 6.97382 0.341516 -3.62842
upperback -0.261677 0.211152 1.24325
thorax -4.08575 0.189718 3.27912
lowerneck -14.5539 -3.21302 -10.6751
upperneck 22.8897 -2.98809 4.6829
head 9.92646 -1.79278 3.05242
lclavicle 7.75129e-15 3.4191e-15 1.57212e-30
lhumerus -33.0367 15.2934 81.0583
lradius 22.638 0 0
lwrist -13.5783 0 0
lhand -15.5973 25.1207 0.097078
lfingers 7.12502 0 0
lthumb 10.5869 54.7927 0.0876128
rclavicle 7.75129e-15 3.4191e-15 1.57212e-30
rhumerus -33.5656 -19.3114 -75.2788
rradius 30.0595 0 0
rwrist 9.65268 0 0
rhand -15.6785 12.6538 -0.0547273
rfingers 7.12502 0 0
rthumb 10.5096 -17.0493 -0.0500872
57
root -2.67737 17.2115 -20.5489 -1.72725 -4.99391 4.00715
lfemur -7.98051 -3.41704 -27.0106
ltibia 33.667 0 0
lfoot -2.74383 -8.28804 -0.85822
ltoes -2.6257 0 0
rfemur -21.8116 -1.38521 16.6066
rtibia 60.4743 0 0
rfoot -0.319898 -3.18276 0.0378104
rtoes 7.01336 0 0
lowerback 7.17786 0.266446 -3.74017
upperback -0.217727 0.0928001 1.21721
thorax -4.17297 0.135057 3.32766
lowerneck -14.9624 -3.24232 -10.7124
upperneck 23.2752 -2.96835 4.64823
head 10.1414 -1.79552 3.05318
lclavicle 7.57075e-15 7.79233e-15 1.41595e-30
lhumerus -32.7447 15.3366 81.0651
lradius 22.799 0 0
lwrist -14.6501 0 0
lhand -15.8237 21.43 0.0760921
lfingers 7.12502 0 0
lthumb 10.3689 51.1237 0.0689158
rclavicle 7.57075e-15 7.79233e-15 1.41595e-30
rhumerus -33.9501 -19.5028 -75.1721
rradius 30.1612 0 0
rwrist 9.85061 0 0
rhand -15.044 11.5244 -0.0352708
rfingers 7.12502 0 0
rthumb 11.1216 -18.1462 -0.0311034
58
root -2.69604 17.2183 -20.317 -1.81694 -4.87018 4.05596
lfemur -7.71971 -3.3415 -27.0599
ltibia 34.348 0 0
lfoot -1.79099 -9.03921 -1.11456
ltoes -0.832699 0 0
rfemur -22.7627 -1.49249 16.7211
rtibia 60.5529 0 0
rfoot -1.15774 -2.90511 0.0529858
rtoes 8.14105 0 0
lowerback 6.65099 0.0978335 -3.61816
upperback 0.187839 -0.106368 1.07095
thorax -3.47599 0.0111185 3.06182
lowerneck -15.1623 -3.1695 -10.5535
upperneck 23.1401 -2.89796 4.72196
head 10.122 -1.73631 3.05957
lclavicle -1.71751e-14 4.25399e-15 3.64022e-31
lhumerus -31.8371 15.0736 81.0956
lradius 22.9652 0 0
lwrist -14.7971 0 0
lhand -12.2221 30.3938 0.185881
lfingers 7.12502 0 0
lthumb 13.8391 59.8481 0.166975
rclavicle -1.71751e-14 4.25399e-15 3.64022e-31
rhumerus -33.863 -19.8211 -75.5847
rradius 30.2936 0 0
rwrist 9.78201 0 0
rhand -14.5176 11.5202 -0.023001
rfingers 7.12502 0 0
rthumb 11.6291 -18.1217 -0.0190068
59
root -2.7149 17.2193 -20.0849 -1.82762 -4.51485 4.08354
lfemur -7.62368 -3.70678 -27.0661
ltibia 35.1046 0 0
lfoot -0.742981 -9.58593 -1.41112
ltoes 1.47568 0 0
rfemur -23.4344 -1.62062 16.8254
rtibia 60.3617 0 0
rfoot -2.31994 -2.87827 0.050182
rtoes 7.35789 0 0
lowerback 7.27532 -0.137566 -3.80236
upperback -0.326395 -0.455218 1.241
thorax -4.30325 -0.129086 3.48984
lowerneck -14.7403 -2.91887 -10.7218
upperneck 23.678 -2.54039 4.6217
head 10.2085 -1.61258 3.10943
lclavicle -6.88766e-15 5.96362e-16 6.8677e-31
lhumerus -32.5693 14.7347 81.415
lradius 23.4947 0 0
lwrist -14.2685 0 0
lhand -14.368 27.5258 0.024406
lfingers 7.12502 0 0
lthumb 11.7729 57.1479 0.0189525
rclavicle -6.88766e-15 5.96362e-16 6.8677e-31
rhumerus -35.0477 -19.1524 -75.0705
rradius 30.538 0 0
rwrist 9.34453 0 0
rhand -13.8351 12.1797 -0.022681
rfingers 7.12502 0 0
rthumb 12.2873 -17.4259 -0.0189937
